# xmcd
#
# Track frame offsets:
# 150
# 27700
# 40990
# 51597
# 72990
# 95625
# 139492
#
# Disc length: 2707 seconds
#
#
# Revision: 0
# Processed by: cddbd v1.5.1PL0 Copyright (c) Steve Scherf et al.
# Submitted via: FreeRIP 2.90 
#
DISCID=710a9107
DTITLE=Lights - Crimson Rain
DYEAR=2001
DGENRE=Rock
TTITLE0=Doom
TTITLE1=Dare To Dream
TTITLE2=The Sky Is Falling
TTITLE3=Grey Sky
TTITLE4=Back
TTITLE5=Crimson Rain
TTITLE6=Data-
EXTD=
EXTT0=
EXTT1=
EXTT2=
EXTT3=
EXTT4=
EXTT5=
EXTT6=
PLAYORDER=
